# xmcd CD database file
#
# Track frame offsets:
#	150
#	40255
#	66917
#	110806
#	152480
#	184138
#	230360
#	264932
#	301134
#
# Disc length: 4313 seconds
#
# Revision: 0
# Processed by: cddbd v1.5.2PL0 Copyright (c) Steve Scherf et al.
# Submitted via: Feurio! 1.68 - http://www.feurio.com
#
DISCID=7010d709
DTITLE=Jochen Aldingers Downbeatclub - Out Of Town
DYEAR=2012
DGENRE=Rock A-Z
TTITLE0=Der Dude
TTITLE1=Svens Sohn
TTITLE2=Afrika 2010
TTITLE3=In Your Own World
TTITLE4=Undercover Blues
TTITLE5=People Know Me
TTITLE6=Senior Blanco
TTITLE7=Juli
TTITLE8=Dr. Finkelstein baut sich eine neue Mutter
EXTD=Komponist: Jochen Aldinger\r\n
EXTT0=Komponist: Jochen Aldinger\r\n
EXTT1=Komponist: Jochen Aldinger\r\n
EXTT2=Komponist: Jochen Aldinger\r\n
EXTT3=Komponist: Jochen Aldinger\r\n
EXTT4=Komponist: Jochen Aldinger\r\n
EXTT5=Komponist: Jochen Aldinger\r\n
EXTT6=Komponist: Jochen Aldinger\r\n
EXTT7=Komponist: Jochen Aldinger\r\n
EXTT8=Komponist: Jochen Aldinger\r\n
PLAYORDER=
